<?xml version="1.0" encoding="UTF-8" standalone="no"?>
<!-- Created with Inkscape (http://www.inkscape.org/) -->

<svg
   width="134.81828mm"
   height="134.65631mm"
   viewBox="0 0 134.81828 134.65631"
   version="1.1"
   id="svg1"
   xml:space="preserve"
   xmlns="http://www.w3.org/2000/svg"
   xmlns:svg="http://www.w3.org/2000/svg"><defs
     id="defs1" /><g
     id="layer1"
     transform="translate(-41.987455,-65.068012)"><path
       style="fill:#ffffff;fill-opacity:1;stroke-width:1.39482"
       d="m 296.79871,727.06306 c -10.3322,-5.47303 -28.60318,-17.4998 -42.34876,-27.87583 -11.60327,-8.75888 -26.20433,-23.53885 -41.6196,-42.12956 -7.95694,-9.59602 -21.31975,-30.61468 -27.37914,-43.06527 l -2.66566,-5.47729 8.47406,-10.63185 c 18.66443,-23.41709 28.64798,-44.26551 33.4456,-69.84368 2.64689,-14.11174 2.44024,-42.84289 -0.41012,-57.02062 -5.53222,-27.51722 -17.90256,-51.72786 -37.24208,-72.88838 l -4.83623,-5.2916 5.33352,-10.04643 c 12.85808,-24.21999 25.31097,-40.88123 47.93119,-64.12915 14.76989,-15.17975 33.50081,-29.02116 57.30112,-42.34326 6.73877,-3.77198 12.5207,-6.85816 12.84875,-6.85816 0.32806,0 2.57788,1.98142 4.99961,4.40315 10.53242,10.53243 29.27545,22.29262 45.93045,28.81878 5.48396,2.14886 16.46747,5.51826 24.40779,7.48755 14.01235,3.47523 14.96819,3.58043 32.49873,3.57647 17.02039,-0.004 18.79354,-0.1843 30.75381,-3.12987 6.98063,-1.71919 15.54776,-4.06115 19.03808,-5.20436 18.40473,-6.02823 40.90938,-19.41288 53.04507,-31.54857 2.42173,-2.42173 4.65968,-4.40315 4.97321,-4.40315 0.31355,0 6.16948,3.12934 13.01321,6.95408 12.49541,6.9833 28.4613,17.48627 39.58579,26.04107 7.63229,5.86926 26.0934,24.48813 35.53121,35.83482 4.01972,4.83274 8.27904,9.88515 9.46516,11.22758 3.16685,3.58419 14.64342,22.21855 20.63601,33.50645 l 5.2096,9.813 -4.98374,5.43292 c -19.09351,20.81438 -31.57193,45.24294 -37.05529,72.54179 -1.835,9.1355 -2.20655,14.13475 -2.19597,29.54597 0.0146,21.25594 1.44084,31.10078 6.84592,47.25528 6.23851,18.64545 13.43504,31.42684 28.13718,49.973 l 8.67517,10.9434 -2.66168,5.46917 c -3.61318,7.42431 -18.83233,33.03599 -20.8629,35.10935 -0.89995,0.91889 -4.26007,4.95026 -7.46694,8.95858 -19.84459,24.80409 -40.33317,42.93707 -68.28228,60.43174 -9.49758,5.945 -22.24581,12.78225 -23.73791,12.73135 -0.41613,-0.0142 -3.83198,-2.95276 -7.59078,-6.53014 -12.30069,-11.707 -34.43382,-24.45873 -51.96571,-29.93941 -18.03429,-5.63773 -26.5488,-6.85017 -48.10622,-6.85017 -17.10154,0 -21.50634,0.32093 -30.26566,2.2051 -27.43056,5.90046 -52.9542,18.54576 -69.80628,34.58448 -3.7588,3.57738 -7.27352,6.50312 -7.81049,6.50164 -0.53697,-10e-4 -4.49103,-1.86447 -8.7868,-4.13997 z m 140.1007,-77.2998 c 15.94568,-2.44993 27.07761,-6.18117 44.42218,-14.88957 23.58532,-11.84177 35.63087,-21.96256 53.14815,-44.65559 10.09828,-13.08196 16.6018,-25.40009 21.92687,-41.53101 5.4578,-16.53305 6.54694,-23.17923 7.1196,-43.44587 0.45274,-16.02244 0.24318,-20.19562 -1.53803,-30.62817 -4.16321,-24.38402 -13.37955,-45.90111 -27.24848,-63.61613 -14.4319,-18.43412 -26.05507,-29.53495 -38.76344,-37.02137 -17.57713,-10.35459 -28.41486,-15.09128 -42.46955,-18.56154 -4.56426,-1.12697 -9.17733,-2.45344 -10.25127,-2.94772 -6.48773,-2.98594 -39.21347,-3.96741 -51.74451,-1.55186 -17.03143,3.28306 -33.53011,8.64052 -45.88665,14.90033 -23.54046,11.92559 -33.95934,20.74071 -53.9345,45.63245 -12.61331,15.71788 -22.68639,39.52869 -26.72209,63.16584 -1.78121,10.43255 -1.99077,14.60573 -1.53803,30.62817 0.572,20.2432 1.65581,26.86947 7.10611,43.44587 6.69286,20.35549 15.28964,34.69366 33.27601,55.49955 18.71539,21.64917 56.45344,41.43802 87.54904,45.90842 9.84534,1.4154 35.38775,1.22933 45.54859,-0.3318 z"
       id="path2"
       transform="scale(0.26458333)" /><path
       style="fill:#ffffff;fill-opacity:1;stroke-width:1.39482"
       d="m 399.79958,281.5645 c -25.90592,-4.76885 -33.46565,-7.72611 -53.11266,-20.77692 l -6.73785,-4.47571 4.25219,-1.23113 c 36.96882,-10.70347 85.60905,-12.14738 123.4329,-3.66419 5.96654,1.33819 12.76175,2.98708 15.10045,3.66419 l 4.25219,1.23113 -6.73785,4.47571 c -16.84964,11.19261 -25.87078,15.18693 -42.91162,19.0001 -6.56209,1.46837 -32.53484,2.69777 -37.53775,1.77682 z"
       id="path3"
       transform="scale(0.26458333)" /><path
       style="fill:#ffffff;fill-opacity:1;stroke-width:1.39482"
       d="m 652.05899,566.59402 c -5.61224,-8.59536 -11.78286,-21.82479 -14.95541,-32.06345 -6.74205,-21.7584 -6.37433,-49.14089 0.95453,-71.07888 3.09189,-9.25517 11.78309,-26.7001 16.50419,-33.12711 l 2.67817,-3.64589 2.22093,7.55114 c 3.35348,11.40178 6.53378,27.09392 7.74207,38.20074 1.34321,12.347 1.39447,43.51615 0.0909,55.26582 -1.17566,10.59668 -4.58117,29.51212 -5.80055,32.21828 -0.48391,1.07394 -1.68001,4.73865 -2.65799,8.14381 l -1.77816,6.19118 z"
       id="path4"
       transform="scale(0.26458333)" /><path
       style="fill:#ffffff;fill-opacity:1;stroke-width:1.39482"
       d="m 399.31142,754.53593 c -16.4011,-0.76921 -29.86211,-2.72883 -46.69899,-6.79833 l -12.52808,-3.02805 5.20575,-3.77591 c 11.33794,-8.22381 31.41481,-17.2122 44.98953,-20.14175 11.14426,-2.40503 35.23235,-2.40503 46.37661,0 13.30118,2.87052 30.34054,10.34801 43.45987,19.07177 l 6.8446,4.55136 -4.23914,1.22734 c -24.9386,7.2204 -53.6994,10.287 -83.41015,8.89357 z"
       id="path5"
       transform="scale(0.26458333)" /><path
       style="fill:#ffffff;fill-opacity:1;stroke-width:1.39482"
       d="m 167.12842,566.0097 c -2.87841,-8.90222 -5.99113,-24.83119 -7.48692,-38.31331 -1.28233,-11.55822 -1.26022,-42.9952 0.0387,-54.95601 1.3375,-12.31647 5.32354,-32.14387 8.00903,-39.83864 l 2.11855,-6.0703 2.62201,3.56952 c 4.67117,6.3592 13.37161,23.8419 16.44801,33.05073 7.65492,22.91399 7.70806,50.78325 0.13991,73.37265 -3.51737,10.49865 -10.69983,25.27336 -15.61179,32.1143 l -3.67537,5.11872 z"
       id="path6"
       transform="scale(0.26458333)" /><path
       style="fill:#ffffff;fill-opacity:1;stroke-width:1.39482"
       d="m 390.75403,617.04012 c -24.41871,-5.14776 -43.14014,-15.25846 -62.06201,-33.51725 -10.47091,-10.10398 -21.04758,-27.18325 -26.87285,-43.39445 -9.00358,-25.05612 -8.74272,-56.20783 0.68026,-81.23704 9.60083,-25.50163 23.35627,-42.22987 48.34002,-58.7872 12.77438,-8.46588 18.0094,-10.83636 32.36283,-14.65428 9.32513,-2.48043 13.67941,-3.06875 25.69738,-3.47206 16.19361,-0.54345 24.32628,0.42994 38.73918,4.63665 12.63518,3.68784 16.38364,5.4654 28.54066,13.53428 20.34778,13.50526 31.89061,25.73083 41.61173,44.07298 21.55592,40.67249 17.77525,91.52968 -9.47908,127.51155 -6.73794,8.8956 -10.91495,13.02419 -23.04022,22.77311 -10.73874,8.63414 -18.30819,12.93652 -30.30205,17.22329 -20.53712,7.34024 -44.99359,9.36271 -64.21585,5.31042 z m 39.79936,-36.17496 c 11.66472,-4.3096 22.65604,-14.17834 27.93386,-25.08087 8.10477,-16.7422 5.66237,-38.24268 -5.92035,-52.11689 l -2.63882,-3.1609 4.67627,-6.17822 c 5.57989,-7.37206 7.65591,-13.52834 8.37598,-24.83838 0.73195,-11.49665 -2.079,-22.62873 -7.36655,-29.1734 -1.08456,-1.34242 -3.43245,-4.37943 -5.21751,-6.74891 -4.14737,-5.50515 -12.02932,-10.90799 -20.23187,-13.86832 -9.20583,-3.32241 -24.1871,-3.32241 -33.39292,0 -9.54203,3.44376 -16.16788,8.45876 -22.87315,17.31232 -6.46534,8.53676 -9.13491,15.11596 -9.95718,24.53969 l -0.53244,6.10195 h 16.24281 16.24281 l 0.0161,-2.68486 c 0.0227,-3.78798 3.81988,-10.0419 7.67433,-12.63941 8.68325,-5.85164 20.01918,-3.12061 25.22919,6.07818 5.83873,10.30881 -0.67685,23.84504 -12.41704,25.79663 l -3.41709,0.56804 v 15.58785 15.58786 l 3.48479,0.56644 c 4.59462,0.74684 10.24348,5.33473 12.6453,10.27028 6.17857,12.69641 -4.95851,27.05331 -18.94992,24.4285 -7.03962,-1.32063 -14.21152,-9.10267 -14.24956,-15.46178 l -0.0161,-2.68486 h -16.24281 -16.24281 l 0.5076,6.10195 c 1.55752,18.72322 15.67858,36.4796 33.44249,42.0519 7.37843,2.31453 9.03143,2.50554 18.54992,2.14357 5.96855,-0.22697 10.66563,-1.02828 14.64467,-2.49836 z"
       id="path7"
       transform="scale(0.26458333)" /></g></svg>
